<svg width="202" height="240" viewBox="0 0 202 240" fill="none" xmlns="http://www.w3.org/2000/svg">
<path fill-rule="evenodd" clip-rule="evenodd" d="M31 6C31 6.43476 30.9909 6.86711 30.9728 7.29683L29.6743 8.39624L28.7121 7.92014L31 5.98307L31 6ZM30.8063 2.55366C30.9335 3.67671 30.9994 4.82131 31 5.98307L33.0617 4.2375L33.4433 3.91441L33.9485 4.77743L33.5669 5.10051L30.9728 7.29683C30.949 7.86286 30.9097 8.42432 30.8554 8.98069L29.6743 8.39624L28.8426 9.10038L27.8805 8.62428L28.7121 7.92014L24.0284 5.60253L28.0637 2.23024L28.4474 1.90961L28.1863 1.25721L30.8063 2.55366ZM30.6468 1.35906C30.7077 1.75438 30.7609 2.15264 30.8063 2.55366L39.1968 6.70545L39.6449 6.9272L40.0983 6.03591L39.6502 5.81416L30.6468 1.35906ZM27.9003 0L30.6468 1.35906C30.5764 0.901999 30.4958 0.448876 30.4053 0H42.9C43.5 0 45.3 0.299996 45.6 0.899988L155.452 157.789L150.45 166.35C149.85 167.4 150.6 168.45 151.95 168.45H167.85C177.45 169.2 183.75 176.55 183.75 186.75C183.75 194.85 178.5 203.25 168.3 203.25C161.25 203.25 154.35 198.15 154.35 190.05C154.35 189.3 153.6 188.7 152.85 188.7H133.65C132.75 188.7 132 189.3 132 190.05C132 211.5 148.95 225 168.3 225C181.901 225 195.136 219.746 201.9 207.712V237.3C201.9 238.5 200.7 240 198.6 240H159C158.4 240 156.6 239.7 156.3 239.1L45.9 81V182.4H0V33.5206L1.4666 32.2789C3.24298 32.7505 5.09558 33 7 33C7.2506 33 7.50029 32.9957 7.74903 32.9871L6.52859 34.007L6.90009 34.9355L9.37184 32.8698C11.445 32.641 13.4408 32.1154 15.3252 31.3314L17.6446 32.4791L8.09029 40.5685L8.59546 41.4315L18.6068 32.9552L19.6539 33.4733L20.102 33.6951L20.5555 32.8038L20.1074 32.5821L19.4385 32.2511L24.4443 28.0128L28.8825 30.209L29.3307 30.4307L29.7841 29.5394L29.336 29.3177L25.2759 27.3087L29.4651 23.7618L32.6825 25.3538L33.1306 25.5755L33.584 24.6842L33.1359 24.4625L30.2968 23.0576L34.8149 19.2323L35.5993 19.6204L36.0474 19.8422L36.5009 18.9509L36.0527 18.7292L35.6465 18.5282L42.2526 12.935L42.6342 12.6119L42.129 11.7489L41.7474 12.072L34.6844 18.0521L29.9223 15.6957L34.4777 11.8887L38.5162 13.8871L38.9643 14.1088L39.4177 13.2175L38.9696 12.9958L35.3162 11.188L37.8739 9.05048L38.2576 8.72985L37.8861 7.80141L37.5024 8.12204L34.385 10.7272L30.8554 8.98069C30.8209 9.3346 30.7802 9.68645 30.7337 10.0361L28.8426 9.10038L24.3245 12.9257L23.3623 12.4496L27.8805 8.62428L23.1899 6.30328L24.0284 5.60253L23.0973 5.14179L27.6922 1.30181L27.9095 1.12023L28.1863 1.25721L28.0759 0.981178L27.9095 1.12023L25.6456 0H27.9003ZM0 31.8335V32.2299L0.335833 31.9455C0.709097 32.0666 1.0861 32.1778 1.4666 32.2789L7.28477 27.3528L11.811 29.5925L7.74903 32.9871C8.29475 32.9683 8.83588 32.929 9.37184 32.8698L12.7421 30.0532L15.3252 31.3314C15.7236 31.1656 16.1171 30.9882 16.5053 30.7997L18.4763 31.775L17.6446 32.4791L18.6068 32.9552L19.4385 32.2511L18.4763 31.775L23.4821 27.5367L24.4443 28.0128L25.2759 27.3087L24.3138 26.8326L28.503 23.2857L29.4651 23.7618L30.2968 23.0576L29.3346 22.5815L33.8527 18.7562L34.8149 19.2323L35.6465 18.5282L34.6844 18.0521L33.8527 18.7562L29.145 16.4267L29.1886 16.3088L29.9223 15.6957L29.48 15.4768C29.5774 15.1847 29.6703 14.8902 29.7589 14.5934L33.5465 11.428L34.4777 11.8887L35.3162 11.188L34.385 10.7272L33.5465 11.428L30.7337 10.0361C30.5248 11.6033 30.1963 13.1265 29.7589 14.5934L28.9912 15.2349L24.3245 12.9257L23.4929 13.6299L22.5307 13.1538L23.3623 12.4496L18.6346 10.1102L23.1899 6.30328L22.2588 5.84253L23.0973 5.14179L17.9543 2.59689L21.0617 0H19.5793L17.0232 2.13615L12.7062 0H11.3909L11.0416 0.291963L10.4515 0H9.90847L5.55507 3.63816L1.17208 1.46935L0.718647 2.36064L4.71656 4.3389L0.161243 8.14581L0 8.06602V8.28056L0.161243 8.14581L1.09238 8.60656L0.253868 9.3073L0 9.18168V9.51946L0.253868 9.3073L5.39696 11.8522L1.17322 15.382L0 14.8015V15.9172L0.334713 16.0828L0 16.3625V17.6014L1.26584 16.5435L6.40886 19.0884L1.36178 23.3063L0 22.6324V23.7481L0.523275 24.007L0 24.4443V25.6832L1.45441 24.4678L6.32261 26.8767L0.335833 31.9455C0.223548 31.9091 0.111602 31.8717 0 31.8335ZM7.15426 26.1726L6.32261 26.8767L7.28477 27.3528L8.11642 26.6487L12.6495 28.8917L11.811 29.5925L12.7421 30.0532L13.5807 29.3525L16.5053 30.7997C18.5678 29.7978 20.4806 28.4798 22.1954 26.9L23.4821 27.5367L24.3138 26.8326L22.9617 26.1635C24.1656 24.9565 25.2607 23.615 26.2283 22.1601L28.503 23.2857L29.3346 22.5815L26.7698 21.3124C27.7035 19.7897 28.5017 18.1538 29.145 16.4267L29.0838 16.3964L29.1886 16.3088C29.2897 16.0338 29.3869 15.7564 29.48 15.4768L28.9912 15.2349L28.1527 15.9357L23.4929 13.6299L18.9748 17.4552L18.0126 16.9791L22.5307 13.1538L17.7961 10.811L18.6346 10.1102L17.7034 9.64948L22.2588 5.84253L17.1158 3.29764L17.9543 2.59689L17.0232 2.13615L16.1847 2.83689L11.0416 0.291963L6.4862 4.09891L5.55507 3.63816L4.71656 4.3389L5.64769 4.79965L1.09238 8.60656L6.23547 11.1515L5.39696 11.8522L6.32809 12.313L2.10435 15.8428L1.17322 15.382L0.334713 16.0828L1.26584 16.5435L2.10435 15.8428L7.24737 18.3877L6.40886 19.0884L7.33998 19.5492L2.29291 23.767L1.36178 23.3063L0.523275 24.007L1.45441 24.4678L2.29291 23.767L7.15426 26.1726ZM12.1601 21.9343L7.15426 26.1726L8.11642 26.6487L13.1222 22.4104L17.6966 24.6739L12.6495 28.8917L13.5807 29.3525L18.6277 25.1346L22.1954 26.9C22.4554 26.6605 22.7109 26.4149 22.9617 26.1635L19.4662 24.4339L23.69 20.9041L26.2283 22.1601C26.4136 21.8817 26.5941 21.599 26.7698 21.3124L24.5285 20.2033L29.0838 16.3964L28.1527 15.9357L23.5974 19.7426L18.9748 17.4552L18.1431 18.1593L17.181 17.6832L18.0126 16.9791L13.2407 14.6179L17.7961 10.811L16.8649 10.3502L17.7034 9.64948L12.5604 7.10458L17.1158 3.29764L16.1847 2.83689L11.6293 6.64384L6.4862 4.09891L5.64769 4.79965L10.7908 7.34458L6.23547 11.1515L7.1666 11.6122L6.32809 12.313L11.4711 14.8579L7.24737 18.3877L8.1785 18.8484L7.33998 19.5492L12.1601 21.9343ZM12.9917 21.2301L17.181 17.6832L12.4022 15.3186L13.2407 14.6179L12.3096 14.1571L16.8649 10.3502L11.7219 7.80533L12.5604 7.10458L11.6293 6.64384L10.7908 7.34458L11.7219 7.80533L7.1666 11.6122L12.3096 14.1571L11.4711 14.8579L12.4022 15.3186L8.1785 18.8484L12.9917 21.2301ZM13.9539 21.7062L18.1431 18.1593L22.7588 20.4433L18.5351 23.9731L13.9539 21.7062ZM13.9539 21.7062L12.9917 21.2301L12.1601 21.9343L13.1222 22.4104L13.9539 21.7062ZM22.7588 20.4433L23.5974 19.7426L24.5285 20.2033L23.69 20.9041L22.7588 20.4433ZM18.5351 23.9731L19.4662 24.4339L18.6277 25.1346L17.6966 24.6739L18.5351 23.9731ZM198.6 0C200.7 0 201.9 1.5 201.9 2.7V105H156.3V2.7C156.3 1.5 157.8 0 159.9 0H198.6ZM182.1 150.9L201.9 116.071V167.105C197.791 159.209 191.059 153.57 182.1 150.9ZM173.85 126.3L156.3 156.337V126.3H173.85Z" fill="black"/>
</svg>
